<mxfile host="app.diagrams.net" modified="2021-04-22T11:50:46.392Z" agent="5.0 (Windows NT 10.0; Win64; x64) AppleWebKit/537.36 (KHTML, like Gecko) Chrome/89.0.4389.114 Safari/537.36" etag="A7v2JvSdXxCcpG4sewmb" version="14.6.5" type="github">
  <diagram id="C5RBs43oDa-KdzZeNtuy" name="Page-1">
    <mxGraphModel dx="1356" dy="599" grid="0" gridSize="10" guides="1" tooltips="1" connect="1" arrows="1" fold="1" page="0" pageScale="1" pageWidth="827" pageHeight="1169" math="0" shadow="0">
      <root>
        <mxCell id="WIyWlLk6GJQsqaUBKTNV-0" />
        <mxCell id="WIyWlLk6GJQsqaUBKTNV-1" parent="WIyWlLk6GJQsqaUBKTNV-0" />
        <mxCell id="kTMpqGEq8r84BiMMHzuE-5" style="edgeStyle=orthogonalEdgeStyle;rounded=0;orthogonalLoop=1;jettySize=auto;html=1;exitX=0.5;exitY=0;exitDx=0;exitDy=0;" edge="1" parent="WIyWlLk6GJQsqaUBKTNV-1" source="kTMpqGEq8r84BiMMHzuE-1">
          <mxGeometry relative="1" as="geometry">
            <mxPoint x="240" y="120" as="targetPoint" />
          </mxGeometry>
        </mxCell>
        <mxCell id="kTMpqGEq8r84BiMMHzuE-9" style="rounded=0;orthogonalLoop=1;jettySize=auto;html=1;entryX=0;entryY=0.25;entryDx=0;entryDy=0;strokeWidth=2;exitX=1;exitY=0.25;exitDx=0;exitDy=0;" edge="1" parent="WIyWlLk6GJQsqaUBKTNV-1" source="kTMpqGEq8r84BiMMHzuE-1" target="kTMpqGEq8r84BiMMHzuE-2">
          <mxGeometry relative="1" as="geometry" />
        </mxCell>
        <mxCell id="kTMpqGEq8r84BiMMHzuE-1" value="&lt;b&gt;&lt;i&gt;&lt;font style=&quot;font-size: 14px&quot;&gt;X&lt;/font&gt;&lt;/i&gt;&lt;/b&gt;" style="whiteSpace=wrap;html=1;aspect=fixed;" vertex="1" parent="WIyWlLk6GJQsqaUBKTNV-1">
          <mxGeometry x="200" y="150" width="80" height="80" as="geometry" />
        </mxCell>
        <mxCell id="kTMpqGEq8r84BiMMHzuE-6" style="edgeStyle=orthogonalEdgeStyle;rounded=0;orthogonalLoop=1;jettySize=auto;html=1;exitX=0.5;exitY=0;exitDx=0;exitDy=0;" edge="1" parent="WIyWlLk6GJQsqaUBKTNV-1" source="kTMpqGEq8r84BiMMHzuE-2">
          <mxGeometry relative="1" as="geometry">
            <mxPoint x="480" y="120" as="targetPoint" />
          </mxGeometry>
        </mxCell>
        <mxCell id="kTMpqGEq8r84BiMMHzuE-10" style="edgeStyle=none;rounded=0;orthogonalLoop=1;jettySize=auto;html=1;exitX=0;exitY=0.75;exitDx=0;exitDy=0;entryX=1;entryY=0.75;entryDx=0;entryDy=0;strokeWidth=2;" edge="1" parent="WIyWlLk6GJQsqaUBKTNV-1" source="kTMpqGEq8r84BiMMHzuE-2" target="kTMpqGEq8r84BiMMHzuE-1">
          <mxGeometry relative="1" as="geometry" />
        </mxCell>
        <mxCell id="kTMpqGEq8r84BiMMHzuE-2" value="&lt;span style=&quot;font-size: 14px&quot;&gt;&lt;b&gt;&lt;i&gt;Y&lt;/i&gt;&lt;/b&gt;&lt;/span&gt;" style="whiteSpace=wrap;html=1;aspect=fixed;" vertex="1" parent="WIyWlLk6GJQsqaUBKTNV-1">
          <mxGeometry x="440" y="150" width="80" height="80" as="geometry" />
        </mxCell>
        <mxCell id="kTMpqGEq8r84BiMMHzuE-3" value="&lt;font&gt;&lt;b&gt;&lt;i&gt;&lt;span style=&quot;font-size: 14px&quot;&gt;D&lt;/span&gt;&lt;span style=&quot;font-size: 11.6667px&quot;&gt;&lt;sub&gt;X&lt;/sub&gt;&lt;/span&gt;&lt;/i&gt;&lt;/b&gt;&lt;/font&gt;" style="text;html=1;strokeColor=none;fillColor=none;align=center;verticalAlign=middle;whiteSpace=wrap;rounded=0;" vertex="1" parent="WIyWlLk6GJQsqaUBKTNV-1">
          <mxGeometry x="210" y="90" width="60" height="20" as="geometry" />
        </mxCell>
        <mxCell id="kTMpqGEq8r84BiMMHzuE-4" value="&lt;span style=&quot;font-size: 14px&quot;&gt;&lt;b&gt;&lt;i&gt;D&lt;sub&gt;Y&lt;/sub&gt;&lt;/i&gt;&lt;/b&gt;&lt;/span&gt;" style="text;html=1;strokeColor=none;fillColor=none;align=center;verticalAlign=middle;whiteSpace=wrap;rounded=0;" vertex="1" parent="WIyWlLk6GJQsqaUBKTNV-1">
          <mxGeometry x="450" y="90" width="60" height="20" as="geometry" />
        </mxCell>
        <mxCell id="kTMpqGEq8r84BiMMHzuE-11" value="&lt;font style=&quot;font-size: 14px&quot;&gt;&lt;i&gt;&lt;b&gt;G&lt;/b&gt;&lt;/i&gt;&lt;/font&gt;" style="text;html=1;strokeColor=none;fillColor=none;align=center;verticalAlign=middle;whiteSpace=wrap;rounded=0;" vertex="1" parent="WIyWlLk6GJQsqaUBKTNV-1">
          <mxGeometry x="340" y="140" width="40" height="20" as="geometry" />
        </mxCell>
        <mxCell id="kTMpqGEq8r84BiMMHzuE-12" value="&lt;font style=&quot;font-size: 14px&quot;&gt;&lt;b&gt;&lt;i&gt;F&lt;/i&gt;&lt;/b&gt;&lt;/font&gt;" style="text;html=1;strokeColor=none;fillColor=none;align=center;verticalAlign=middle;whiteSpace=wrap;rounded=0;" vertex="1" parent="WIyWlLk6GJQsqaUBKTNV-1">
          <mxGeometry x="340" y="220" width="40" height="20" as="geometry" />
        </mxCell>
      </root>
    </mxGraphModel>
  </diagram>
</mxfile>
